<svg width="111" height="16" viewBox="0 0 111 16" fill="none" xmlns="http://www.w3.org/2000/svg">
<path d="M11.1 5.92518C10.78 5.33851 10.34 4.89185 9.78 4.58518C9.22 4.27851 8.56667 4.12518 7.82 4.12518C6.99333 4.12518 6.26 4.31185 5.62 4.68518C4.98 5.05851 4.48 5.59185 4.12 6.28518C3.76 6.97851 3.58 7.77851 3.58 8.68518C3.58 9.61851 3.76 10.4318 4.12 11.1252C4.49333 11.8185 5.00667 12.3518 5.66 12.7252C6.31333 13.0985 7.07333 13.2852 7.94 13.2852C9.00667 13.2852 9.88 13.0052 10.56 12.4452C11.24 11.8718 11.6867 11.0785 11.9 10.0652H7.1V7.92518H14.66V10.3652C14.4733 11.3385 14.0733 12.2385 13.46 13.0652C12.8467 13.8918 12.0533 14.5585 11.08 15.0652C10.12 15.5585 9.04 15.8052 7.84 15.8052C6.49333 15.8052 5.27333 15.5052 4.18 14.9052C3.1 14.2918 2.24667 13.4452 1.62 12.3652C1.00667 11.2852 0.7 10.0585 0.7 8.68518C0.7 7.31185 1.00667 6.08518 1.62 5.00518C2.24667 3.91185 3.1 3.06518 4.18 2.46518C5.27333 1.85185 6.48667 1.54518 7.82 1.54518C9.39333 1.54518 10.76 1.93185 11.92 2.70518C13.08 3.46518 13.88 4.53851 14.32 5.92518H11.1ZM16.0116 10.1052C16.0116 8.98518 16.2316 7.99185 16.6716 7.12518C17.1249 6.25851 17.7316 5.59185 18.4916 5.12518C19.2649 4.65851 20.1249 4.42518 21.0716 4.42518C21.8982 4.42518 22.6182 4.59185 23.2316 4.92518C23.8582 5.25851 24.3582 5.67851 24.7316 6.18518V4.60518H27.5516V15.6852H24.7316V14.0652C24.3716 14.5852 23.8716 15.0185 23.2316 15.3652C22.6049 15.6985 21.8782 15.8652 21.0516 15.8652C20.1182 15.8652 19.2649 15.6252 18.4916 15.1452C17.7316 14.6652 17.1249 13.9918 16.6716 13.1252C16.2316 12.2452 16.0116 11.2385 16.0116 10.1052ZM24.7316 10.1452C24.7316 9.46518 24.5982 8.88518 24.3316 8.40518C24.0649 7.91185 23.7049 7.53851 23.2516 7.28518C22.7982 7.01851 22.3116 6.88518 21.7916 6.88518C21.2716 6.88518 20.7916 7.01185 20.3516 7.26518C19.9116 7.51851 19.5516 7.89185 19.2716 8.38518C19.0049 8.86518 18.8716 9.43851 18.8716 10.1052C18.8716 10.7718 19.0049 11.3585 19.2716 11.8652C19.5516 12.3585 19.9116 12.7385 20.3516 13.0052C20.8049 13.2718 21.2849 13.4052 21.7916 13.4052C22.3116 13.4052 22.7982 13.2785 23.2516 13.0252C23.7049 12.7585 24.0649 12.3852 24.3316 11.9052C24.5982 11.4118 24.7316 10.8252 24.7316 10.1452ZM44.0463 4.44518C45.4063 4.44518 46.4996 4.86518 47.3263 5.70518C48.1663 6.53185 48.5863 7.69185 48.5863 9.18518V15.6852H45.7863V9.56518C45.7863 8.69851 45.5663 8.03851 45.1263 7.58518C44.6863 7.11851 44.0863 6.88518 43.3263 6.88518C42.5663 6.88518 41.9596 7.11851 41.5063 7.58518C41.0663 8.03851 40.8463 8.69851 40.8463 9.56518V15.6852H38.0463V9.56518C38.0463 8.69851 37.8263 8.03851 37.3863 7.58518C36.9463 7.11851 36.3463 6.88518 35.5863 6.88518C34.8129 6.88518 34.1996 7.11851 33.7463 7.58518C33.3063 8.03851 33.0863 8.69851 33.0863 9.56518V15.6852H30.2863V4.60518H33.0863V5.94518C33.4463 5.47851 33.9063 5.11185 34.4663 4.84518C35.0396 4.57851 35.6663 4.44518 36.3463 4.44518C37.2129 4.44518 37.9863 4.63185 38.6663 5.00518C39.3463 5.36518 39.8729 5.88518 40.2463 6.56518C40.6063 5.92518 41.1263 5.41185 41.8063 5.02518C42.4996 4.63851 43.2463 4.44518 44.0463 4.44518ZM61.5433 9.90518C61.5433 10.3052 61.5166 10.6652 61.4633 10.9852H53.3633C53.4299 11.7852 53.7099 12.4118 54.2033 12.8652C54.6966 13.3185 55.3033 13.5452 56.0233 13.5452C57.0633 13.5452 57.8033 13.0985 58.2433 12.2052H61.2633C60.9433 13.2718 60.3299 14.1518 59.4233 14.8452C58.5166 15.5252 57.4033 15.8652 56.0833 15.8652C55.0166 15.8652 54.0566 15.6318 53.2033 15.1652C52.3633 14.6852 51.7033 14.0118 51.2233 13.1452C50.7566 12.2785 50.5233 11.2785 50.5233 10.1452C50.5233 8.99851 50.7566 7.99185 51.2233 7.12518C51.6899 6.25851 52.3433 5.59185 53.1833 5.12518C54.0233 4.65851 54.9899 4.42518 56.0833 4.42518C57.1366 4.42518 58.0766 4.65185 58.9033 5.10518C59.7433 5.55851 60.3899 6.20518 60.8433 7.04518C61.3099 7.87185 61.5433 8.82518 61.5433 9.90518ZM58.6433 9.10518C58.6299 8.38518 58.3699 7.81185 57.8633 7.38518C57.3566 6.94518 56.7366 6.72518 56.0033 6.72518C55.3099 6.72518 54.7233 6.93851 54.2433 7.36518C53.7766 7.77851 53.4899 8.35851 53.3833 9.10518H58.6433ZM66.387 13.4652H70.987V15.6852H63.587V1.72518H66.387V13.4652ZM72.0467 10.1052C72.0467 8.98518 72.2667 7.99185 72.7067 7.12518C73.1601 6.25851 73.7667 5.59185 74.5267 5.12518C75.3001 4.65851 76.1601 4.42518 77.1067 4.42518C77.9334 4.42518 78.6534 4.59185 79.2667 4.92518C79.8934 5.25851 80.3934 5.67851 80.7667 6.18518V4.60518H83.5867V15.6852H80.7667V14.0652C80.4067 14.5852 79.9067 15.0185 79.2667 15.3652C78.6401 15.6985 77.9134 15.8652 77.0867 15.8652C76.1534 15.8652 75.3001 15.6252 74.5267 15.1452C73.7667 14.6652 73.1601 13.9918 72.7067 13.1252C72.2667 12.2452 72.0467 11.2385 72.0467 10.1052ZM80.7667 10.1452C80.7667 9.46518 80.6334 8.88518 80.3667 8.40518C80.1001 7.91185 79.7401 7.53851 79.2867 7.28518C78.8334 7.01851 78.3467 6.88518 77.8267 6.88518C77.3067 6.88518 76.8267 7.01185 76.3867 7.26518C75.9467 7.51851 75.5867 7.89185 75.3067 8.38518C75.0401 8.86518 74.9067 9.43851 74.9067 10.1052C74.9067 10.7718 75.0401 11.3585 75.3067 11.8652C75.5867 12.3585 75.9467 12.7385 76.3867 13.0052C76.8401 13.2718 77.3201 13.4052 77.8267 13.4052C78.3467 13.4052 78.8334 13.2785 79.2867 13.0252C79.7401 12.7585 80.1001 12.3852 80.3667 11.9052C80.6334 11.4118 80.7667 10.8252 80.7667 10.1452ZM92.4614 4.44518C93.7814 4.44518 94.8481 4.86518 95.6614 5.70518C96.4747 6.53185 96.8814 7.69185 96.8814 9.18518V15.6852H94.0814V9.56518C94.0814 8.68518 93.8614 8.01185 93.4214 7.54518C92.9814 7.06518 92.3814 6.82518 91.6214 6.82518C90.8481 6.82518 90.2347 7.06518 89.7814 7.54518C89.3414 8.01185 89.1214 8.68518 89.1214 9.56518V15.6852H86.3214V4.60518H89.1214V5.98518C89.4947 5.50518 89.9681 5.13185 90.5414 4.86518C91.1281 4.58518 91.7681 4.44518 92.4614 4.44518ZM98.8241 10.1052C98.8241 8.98518 99.0441 7.99185 99.4841 7.12518C99.9374 6.25851 100.551 5.59185 101.324 5.12518C102.097 4.65851 102.957 4.42518 103.904 4.42518C104.624 4.42518 105.311 4.58518 105.964 4.90518C106.617 5.21185 107.137 5.62518 107.524 6.14518V0.88518H110.364V15.6852H107.524V14.0452C107.177 14.5918 106.691 15.0318 106.064 15.3652C105.437 15.6985 104.711 15.8652 103.884 15.8652C102.951 15.8652 102.097 15.6252 101.324 15.1452C100.551 14.6652 99.9374 13.9918 99.4841 13.1252C99.0441 12.2452 98.8241 11.2385 98.8241 10.1052ZM107.544 10.1452C107.544 9.46518 107.411 8.88518 107.144 8.40518C106.877 7.91185 106.517 7.53851 106.064 7.28518C105.611 7.01851 105.124 6.88518 104.604 6.88518C104.084 6.88518 103.604 7.01185 103.164 7.26518C102.724 7.51851 102.364 7.89185 102.084 8.38518C101.817 8.86518 101.684 9.43851 101.684 10.1052C101.684 10.7718 101.817 11.3585 102.084 11.8652C102.364 12.3585 102.724 12.7385 103.164 13.0052C103.617 13.2718 104.097 13.4052 104.604 13.4052C105.124 13.4052 105.611 13.2785 106.064 13.0252C106.517 12.7585 106.877 12.3852 107.144 11.9052C107.411 11.4118 107.544 10.8252 107.544 10.1452Z" fill="black"/>
</svg>
