<svg width="81" height="63" viewBox="0 0 81 63" fill="none" xmlns="http://www.w3.org/2000/svg">
<g clip-path="url(#clip0_302_41)">
<path d="M14.7255 62.6869V58.5172C14.7255 56.9184 13.7529 55.8762 12.0858 55.8762C11.2524 55.8762 10.3493 56.1542 9.72411 57.0577C9.23811 56.2932 8.5436 55.8762 7.50168 55.8762C6.80685 55.8762 6.11265 56.0845 5.55673 56.8491V56.0152H4.09809V62.6869H5.55673V59.0034C5.55673 57.8223 6.18194 57.266 7.15458 57.266C8.12658 57.266 8.61321 57.8916 8.61321 59.0034V62.6869H10.0718V59.0034C10.0718 57.8223 10.766 57.266 11.6691 57.266C12.6417 57.266 13.1277 57.8916 13.1277 59.0034V62.6869H14.7255ZM36.3269 56.0152H33.9656V53.9998H32.5069V56.0152H31.1872V57.3354H32.5066V60.3935C32.5066 61.9226 33.1318 62.8258 34.799 62.8258C35.4242 62.8258 36.1184 62.6175 36.605 62.3396L36.188 61.0884C35.7713 61.3664 35.2853 61.4361 34.9379 61.4361C34.2434 61.4361 33.9656 61.0191 33.9656 60.3239V57.3354H36.3269V56.0152ZM48.6908 55.8759C47.8574 55.8759 47.3018 56.2932 46.9544 56.8491V56.0152H45.4957V62.6869H46.9544V58.9341C46.9544 57.8223 47.4404 57.1967 48.3434 57.1967C48.6212 57.1967 48.9686 57.2663 49.2464 57.3357L49.6631 55.9459C49.3853 55.8762 48.9686 55.8762 48.6908 55.8762V55.8759ZM30.0064 56.5711C29.3116 56.0845 28.3392 55.8762 27.2973 55.8762C25.6305 55.8762 24.5193 56.7101 24.5193 58.0306C24.5193 59.1427 25.3527 59.768 26.8113 59.9766L27.5058 60.0463C28.2699 60.1849 28.6867 60.3935 28.6867 60.7412C28.6867 61.2274 28.131 61.575 27.1584 61.575C26.1861 61.575 25.422 61.2274 24.9357 60.8801L24.2411 61.992C25.0053 62.5479 26.0472 62.8258 27.0888 62.8258C29.0338 62.8258 30.1453 61.9226 30.1453 60.6715C30.1453 59.49 29.2423 58.8645 27.8529 58.6561L27.1584 58.5865C26.5332 58.5168 26.0472 58.3782 26.0472 57.9612C26.0472 57.4746 26.5332 57.1967 27.2973 57.1967C28.131 57.1967 28.9645 57.544 29.3812 57.7526L30.0064 56.5711ZM68.7646 55.8762C67.9308 55.8762 67.3752 56.2932 67.0278 56.8491V56.0152H65.5692V62.6869H67.0278V58.9341C67.0278 57.8223 67.5141 57.1967 68.4168 57.1967C68.695 57.1967 69.0424 57.2663 69.3202 57.3357L69.7369 55.9459C69.4591 55.8762 69.0424 55.8762 68.7646 55.8762ZM50.1494 59.351C50.1494 61.3664 51.5385 62.8258 53.6919 62.8258C54.6642 62.8258 55.3588 62.6175 56.0533 62.0616L55.3588 60.8801C54.8031 61.2971 54.2475 61.5054 53.6223 61.5054C52.4415 61.5054 51.6081 60.6715 51.6081 59.351C51.6081 58.1002 52.4415 57.266 53.6223 57.1967C54.2475 57.1967 54.8031 57.405 55.3588 57.8223L56.0533 56.6408C55.3588 56.0845 54.6642 55.8762 53.6919 55.8762C51.5385 55.8762 50.1494 57.3357 50.1494 59.351ZM63.6246 59.351V56.0152H62.1659V56.8491C61.6796 56.2238 60.9851 55.8762 60.0821 55.8762C58.2067 55.8762 56.7481 57.3357 56.7481 59.351C56.7481 61.3664 58.2067 62.8258 60.0821 62.8258C61.0544 62.8258 61.7492 62.4786 62.1659 61.853V62.6869H63.6246V59.351ZM58.276 59.351C58.276 58.1695 59.0401 57.1967 60.2903 57.1967C61.4711 57.1967 62.3048 58.1002 62.3048 59.351C62.3048 60.5325 61.4711 61.5054 60.2903 61.5054C59.0401 61.4357 58.276 60.5325 58.276 59.351ZM40.842 55.8762C38.8971 55.8762 37.5077 57.266 37.5077 59.351C37.5077 61.4361 38.8968 62.8258 40.9113 62.8258C41.8836 62.8258 42.8563 62.5479 43.6204 61.9226L42.9256 60.8801C42.37 61.2971 41.6755 61.575 40.9809 61.575C40.0779 61.575 39.1749 61.1581 38.9664 59.9763H43.8982V59.4207C43.9678 57.266 42.7174 55.8762 40.8417 55.8762H40.842ZM40.842 57.127C41.7447 57.127 42.3703 57.6833 42.5089 58.7258H39.036C39.1749 57.8223 39.8001 57.127 40.842 57.127ZM77.0301 59.351V53.3743H75.5714V56.8491C75.0851 56.2238 74.3906 55.8762 73.4876 55.8762C71.6122 55.8762 70.1536 57.3357 70.1536 59.351C70.1536 61.3664 71.6122 62.8258 73.4876 62.8258C74.4602 62.8258 75.1547 62.4786 75.5714 61.853V62.6869H77.0301V59.351ZM71.6818 59.351C71.6818 58.1695 72.4456 57.1967 73.6961 57.1967C74.8769 57.1967 75.7103 58.1002 75.7103 59.351C75.7103 60.5325 74.8769 61.5054 73.6961 61.5054C72.4456 61.4357 71.6818 60.5325 71.6818 59.351ZM22.9214 59.351V56.0152H21.4628V56.8491C20.9765 56.2238 20.282 55.8762 19.3789 55.8762C17.5036 55.8762 16.045 57.3357 16.045 59.351C16.045 61.3664 17.5036 62.8258 19.3789 62.8258C20.3516 62.8258 21.0461 62.4786 21.4628 61.853V62.6869H22.9214V59.351ZM17.5036 59.351C17.5036 58.1695 18.2677 57.1967 19.5178 57.1967C20.6987 57.1967 21.5324 58.1002 21.5324 59.351C21.5324 60.5325 20.6987 61.5054 19.5178 61.5054C18.2677 61.4357 17.5036 60.5325 17.5036 59.351Z" fill="black"/>
<path d="M29.5201 5.3512H51.3996V44.6869H29.5201V5.3512Z" fill="#FF5F00"/>
<path d="M30.9094 25.0192C30.9094 17.0271 34.6601 9.93817 40.425 5.3512C36.1883 2.01537 30.8401 0 25.0056 0C11.1827 0 0 11.189 0 25.0192C0 38.8492 11.1827 50.0385 25.0053 50.0385C30.8398 50.0385 36.188 48.0231 40.425 44.6869C34.6601 40.1696 30.9094 33.0114 30.9094 25.0192Z" fill="#EB001B"/>
<path d="M80.9196 25.0192C80.9196 38.8492 69.7369 50.0385 55.9144 50.0385C50.0798 50.0385 44.7316 48.0231 40.4946 44.6869C46.3292 40.1003 50.0105 33.0114 50.0105 25.0192C50.0105 17.0271 46.2595 9.93817 40.4946 5.3512C44.7313 2.01537 50.0798 0 55.9144 0C69.7369 0 80.9199 11.2586 80.9199 25.0192H80.9196Z" fill="#F79E1B"/>
</g>
<defs>
<clipPath id="clip0_302_41">
<rect width="81" height="63" fill="white"/>
</clipPath>
</defs>
</svg>
