<svg width="64" height="64" viewBox="0 0 64 64" fill="none" xmlns="http://www.w3.org/2000/svg">
<g clip-path="url(#clip0_302_48)">
<path d="M42.71 38.344C42.71 37.49 42.344 37.022 41.792 36.688C41.23 36.366 40.552 36.322 39.624 36.322H35.51V43.842H37.312V41.104H39.24C39.874 41.104 40.272 41.168 40.51 41.438C40.832 41.782 40.792 42.448 40.792 42.908V43.836H42.542V42.356C42.542 41.69 42.502 41.356 42.262 40.98C42.0265 40.6979 41.7209 40.4827 41.376 40.356L41.426 40.334C41.916 40.148 42.708 39.542 42.708 38.344H42.71ZM40.386 39.426L40.312 39.416C40.072 39.562 39.792 39.574 39.426 39.574H37.272V37.896H39.47C39.792 37.896 40.104 37.896 40.356 38.032C40.4815 38.0932 40.586 38.1903 40.6561 38.3111C40.7263 38.4318 40.759 38.5707 40.75 38.71C40.75 39.032 40.624 39.28 40.396 39.428L40.386 39.426ZM54.126 42.23H50.668V43.836H54.148C55.948 43.836 56.948 43.094 56.948 41.482C56.948 40.73 56.772 40.282 56.45 39.93C56.044 39.576 55.396 39.408 54.504 39.378L53.502 39.336C53.222 39.336 53.024 39.336 52.816 39.254C52.6973 39.2168 52.594 39.1417 52.5221 39.0402C52.4502 38.9387 52.4136 38.8163 52.418 38.692C52.418 38.452 52.46 38.254 52.658 38.14C52.8805 38.0159 53.1337 37.9577 53.388 37.972H56.658V36.37H53.064C51.19 36.37 50.512 37.536 50.512 38.61C50.512 41.016 52.576 40.89 54.264 40.932C54.534 40.932 54.742 40.972 54.856 41.086C54.982 41.172 55.074 41.368 55.074 41.566C55.074 41.774 54.98 41.972 54.866 42.046C54.712 42.19 54.472 42.232 54.128 42.232L54.126 42.23ZM3.29595e-06 0V26.928L2.158 21.918H6.824L7.426 23.158V21.918H12.874L14.072 24.636L15.24 21.94H32.584C33.366 21.94 34.072 22.094 34.594 22.574V21.958H39.364V22.574C40.174 22.116 41.186 21.958 42.342 21.958H49.288L49.936 23.198V21.958H55.05L55.724 23.198V21.948H60.684V32.482H55.652L54.694 30.876V32.438H48.412L47.734 30.76H46.172L45.454 32.394H42.224C40.942 32.394 39.984 32.124 39.338 31.76V32.394H31.628V30.042C31.628 29.72 31.556 29.72 31.358 29.676H31.076V32.436H16.17V31.166L15.608 32.436H12.504L11.962 31.166V32.404H5.952L5.274 30.738H3.722L3.048 32.404H-0.0059967V63.998H63.42V45.04C62.702 45.402 61.786 45.518 60.826 45.518H56.234V44.84C55.672 45.278 54.714 45.518 53.796 45.518H39.222V43.124C39.222 42.802 39.168 42.802 38.9 42.802H38.702V45.53H33.9V42.688C33.108 43.054 32.18 43.082 31.42 43.054H30.858V45.492H25.048L23.6 43.844L22.078 45.45H12.64V34.97H22.266L23.65 36.576L25.13 34.97H31.556C32.306 34.97 33.524 35.056 34.066 35.576V34.93H39.868C40.41 34.93 41.588 35.056 42.284 35.532V34.898H50.982V35.532C51.42 35.094 52.348 34.898 53.128 34.898H58.168V35.532C58.69 35.138 59.408 34.898 60.408 34.898H63.544V0.002L3.29595e-06 0ZM56.416 39.874C56.426 39.896 56.426 39.916 56.438 39.928C56.47 39.946 56.51 39.946 56.532 39.978L56.418 39.884L56.416 39.874ZM63.542 34.886H63.72V36.366H63.542V34.886ZM63.634 40.082V40.06C63.562 39.998 63.52 39.938 63.436 39.874C63.042 39.468 62.394 39.3 61.404 39.28L60.436 39.25C60.124 39.25 59.926 39.228 59.718 39.168C59.5994 39.1305 59.4964 39.0554 59.4245 38.9539C59.3527 38.8524 59.316 38.7303 59.32 38.606C59.32 38.366 59.402 38.176 59.56 38.062C59.758 37.948 59.954 37.928 60.278 37.928H63.54V36.366H60.124C58.278 36.366 57.562 37.532 57.562 38.606C57.562 41 59.644 40.886 61.322 40.928C61.604 40.928 61.802 40.958 61.916 41.082C62.042 41.168 62.124 41.364 62.124 41.562C62.1225 41.6549 62.1002 41.7462 62.0586 41.8293C62.0171 41.9124 61.9574 41.9851 61.884 42.042C61.758 42.186 61.518 42.228 61.166 42.228H57.726V43.842H61.156C62.278 43.842 63.114 43.53 63.562 42.884H63.634C63.874 42.518 64 42.082 64 41.49C64 40.842 63.874 40.448 63.634 40.082ZM49.594 37.886V36.334H43.634V43.886H49.594V42.324H45.404V40.814H49.49V39.252H45.404V37.898L49.594 37.886ZM36.032 23.426H37.854V30.938H36.032V23.426ZM35 25.448L34.978 25.47C34.978 24.624 34.634 24.136 34.072 23.804C33.498 23.47 32.824 23.438 31.918 23.438H27.814V30.958H29.614V28.198H31.532C32.166 28.198 32.574 28.28 32.834 28.52C33.16 28.886 33.116 29.53 33.116 29.978V30.928H34.918V29.458C34.918 28.792 34.876 28.458 34.624 28.072C34.3896 27.7941 34.089 27.5795 33.75 27.448C34.1352 27.2777 34.461 26.9965 34.6858 26.6403C34.9106 26.2841 35.0241 25.869 35.012 25.448H35ZM32.72 26.502H32.688C32.438 26.646 32.166 26.656 31.802 26.656H29.604V24.99H31.802C32.124 24.99 32.436 25 32.676 25.126C32.916 25.23 33.082 25.47 33.082 25.792C33.082 26.114 32.956 26.376 32.72 26.502ZM42.458 24.99H44.136V23.396H42.416C41.186 23.396 40.28 23.678 39.698 24.274C38.938 25.074 38.738 26.116 38.738 27.242C38.738 28.608 39.06 29.46 39.698 30.096C40.312 30.73 41.416 30.93 42.28 30.93H44.366L45.044 29.252H48.75L49.448 30.93H53.072V25.304L56.47 30.93H59.012V23.428H57.178V28.668L54.034 23.438H51.314V30.396L48.292 23.314H45.614L43.104 29.242H42.302C41.836 29.242 41.334 29.16 41.054 28.876C40.72 28.482 40.564 27.918 40.564 27.116C40.564 26.356 40.772 25.75 41.074 25.438C41.428 25.072 41.804 24.99 42.45 24.99H42.458ZM46.906 24.71L48.136 27.688V27.698H45.656L46.906 24.71ZM6.344 29.25L7.022 30.928H10.668V25.054L13.262 30.928H14.814L17.406 25.054L17.448 30.928H19.29V23.438H16.312L14.166 28.51L11.824 23.428H8.918V30.532L5.876 23.428H3.22L0.0340033 30.93H1.948L2.636 29.264H6.346L6.344 29.25ZM4.51 24.71L5.74 27.688L5.73 27.698H3.292L4.51 24.71ZM31.614 36.322H25.908L23.636 38.78L21.438 36.322H14.262V43.842H21.334L23.614 41.354L25.814 43.834H29.28V41.332H31.52C33.114 41.332 34.634 40.894 34.634 38.812L34.624 38.802C34.624 36.72 33.032 36.322 31.614 36.322ZM20.458 42.272H16.052V40.782H19.966V39.252H16.052V37.898H20.53L22.49 40.084L20.448 42.282L20.458 42.272ZM27.498 43.158L24.748 40.094L27.498 37.148V43.158ZM31.634 39.802H29.28V37.884H31.634C32.28 37.884 32.76 38.146 32.76 38.802C32.76 39.458 32.366 39.802 31.634 39.802ZM26.584 24.99V23.428H20.614V30.94H26.584V29.388H22.394V27.886H26.468V26.344H22.394V24.99H26.584Z" fill="#002663"/>
</g>
<defs>
<clipPath id="clip0_302_48">
<rect width="64" height="64" fill="white"/>
</clipPath>
</defs>
</svg>
