<svg width="16" height="16" viewBox="0 0 16 16" fill="none" xmlns="http://www.w3.org/2000/svg">
<path d="M15.4246 13.8301C15.5295 13.9346 15.6127 14.0588 15.6695 14.1955C15.7263 14.3323 15.7555 14.4789 15.7555 14.627C15.7555 14.775 15.7263 14.9216 15.6695 15.0584C15.6127 15.1951 15.5295 15.3193 15.4246 15.4238C15.2123 15.6334 14.9261 15.7509 14.6278 15.7509C14.3295 15.7509 14.0432 15.6334 13.8309 15.4238L7.87776 9.4707L1.92464 15.4238C1.71234 15.6334 1.42605 15.7509 1.12776 15.7509C0.829471 15.7509 0.543183 15.6334 0.330887 15.4238C0.226007 15.3193 0.142791 15.1951 0.0860099 15.0584C0.0292288 14.9216 0 14.775 0 14.627C0 14.4789 0.0292288 14.3323 0.0860099 14.1955C0.142791 14.0588 0.226007 13.9346 0.330887 13.8301L6.28401 7.87695L0.330887 1.92383C0.119543 1.71248 0.000810742 1.42584 0.000810742 1.12695C0.000810742 0.978958 0.0299603 0.832414 0.0865949 0.695686C0.14323 0.558958 0.22624 0.434724 0.330887 0.330077C0.435534 0.225429 0.559769 0.142419 0.696497 0.0857842C0.833225 0.0291496 0.979769 0 1.12776 0C1.42665 0 1.71329 0.118732 1.92464 0.330077L7.87776 6.2832L13.8309 0.330077C14.0422 0.118732 14.3289 0 14.6278 0C14.9266 0 15.2133 0.118732 15.4246 0.330077C15.636 0.541421 15.7547 0.828065 15.7547 1.12695C15.7547 1.42584 15.636 1.71248 15.4246 1.92383L9.47151 7.87695L15.4246 13.8301Z" fill="black"/>
</svg>
